<?xml version="1.0" encoding="UTF-8"?><svg id="Layer_1" xmlns="http://www.w3.org/2000/svg" xmlns:xlink="http://www.w3.org/1999/xlink" viewBox="0 0 200 218"><defs><style>.cls-1{fill:url(#linear-gradient);}.cls-1,.cls-2,.cls-3,.cls-4,.cls-5,.cls-6,.cls-7{stroke-width:0px;}.cls-2{fill:url(#radial-gradient);}.cls-3{fill:url(#radial-gradient-2);}.cls-4{fill:url(#radial-gradient-3);}.cls-5{fill:url(#linear-gradient-4);}.cls-6{fill:url(#linear-gradient-2);}.cls-7{fill:url(#linear-gradient-3);}</style><linearGradient id="linear-gradient" x1="-35.47" y1="586.48" x2="208.03" y2="435.62" gradientTransform="translate(0 -388)" gradientUnits="userSpaceOnUse"><stop offset=".21" stop-color="#3d5e9e"/><stop offset=".53" stop-color="#2f91ab"/><stop offset=".98" stop-color="#3ca7e3"/></linearGradient><linearGradient id="linear-gradient-2" x1="100" y1="338.25" x2="100" y2="568.68" gradientTransform="translate(0 -388)" gradientUnits="userSpaceOnUse"><stop offset="0" stop-color="#3ca7e3"/><stop offset=".7" stop-color="#2f91ab"/><stop offset=".97" stop-color="#3d5e9e"/></linearGradient><linearGradient id="linear-gradient-3" x1="77.32" y1="496.96" x2="156.27" y2="496.96" gradientTransform="translate(0 -388)" gradientUnits="userSpaceOnUse"><stop offset="0" stop-color="#3d5e9e"/><stop offset=".5" stop-color="#2f91ab"/><stop offset="1" stop-color="#3ca7e3"/></linearGradient><radialGradient id="radial-gradient" cx="430.05" cy="606.14" fx="430.05" fy="606.14" r="102.19" gradientTransform="translate(-205.07 -416.21) scale(.87)" gradientUnits="userSpaceOnUse"><stop offset="0" stop-color="#fff" stop-opacity=".2"/><stop offset="1" stop-color="#fff" stop-opacity=".05"/></radialGradient><radialGradient id="radial-gradient-2" cx="430.05" cy="606.14" fx="430.05" fy="606.14" r="102.19" gradientTransform="translate(-205.07 -416.21) scale(.87)" gradientUnits="userSpaceOnUse"><stop offset="0" stop-color="#fff" stop-opacity=".2"/><stop offset="1" stop-color="#fff" stop-opacity=".05"/></radialGradient><radialGradient id="radial-gradient-3" cx="430.05" cy="606.14" fx="430.05" fy="606.14" r="102.19" gradientTransform="translate(-205.07 -416.21) scale(.87)" gradientUnits="userSpaceOnUse"><stop offset="0" stop-color="#fff" stop-opacity=".2"/><stop offset="1" stop-color="#fff" stop-opacity=".05"/></radialGradient><linearGradient id="linear-gradient-4" x1="84.85" y1="411.26" x2="205.91" y2="490.67" gradientTransform="translate(0 -388)" gradientUnits="userSpaceOnUse"><stop offset="0" stop-color="#3d5e9e"/><stop offset=".41" stop-color="#2f91ab"/><stop offset="1" stop-color="#3ca7e3"/></linearGradient></defs><path class="cls-1" d="M192.52,178.8c11.25-13.44,9.22-33.48-4.4-44.73-9.47-7.86-22.24-9.47-32.89-4.82l-56.31,32.47c-18.69,10.65-33.74,2.03-33.74-19.45v-66.63c0-21.48,15.22-30.27,33.74-19.45l56.56,32.72c10.65,4.4,23.25,3.04,32.89-4.82,13.44-11.25,15.64-31.28,4.4-44.73h0C172.74,15.28,142.64.06,108.9.06,48.7.06,0,48.84,0,108.96s48.7,108.99,108.9,108.99c33.74,0,63.58-15.05,83.62-39.15h0Z"/><path class="cls-6" d="M108.9.06C48.7.06,0,48.84,0,108.96c0,18.43,4.65,35.93,12.85,51.15,12.85,8.2,27.9,13.02,44.3,13.02s30.52-4.4,42.95-12.26l-1.18.76c-18.69,10.65-33.74,2.03-33.74-19.45v-66.54c0-21.48,15.22-30.27,33.74-19.45l56.56,32.72c10.65,4.4,23.25,3.04,32.89-4.82,13.44-11.25,15.64-31.28,4.4-44.73C172.74,15.28,142.64.06,108.9.06Z"/><path class="cls-7" d="M148.47,119.78c10.23-5.83,10.23-15.64,0-21.48l-52.59-30.52c-10.23-5.83-18.69-1.01-18.69,10.82v60.71c0,11.84,8.46,16.66,18.69,10.82l52.59-30.35Z"/><path class="cls-2" d="M148.47,98.14l-52.59-30.27c-10.23-5.83-18.69-1.01-18.69,10.82,0,14.2,38.89,48.53,58.17,48.53h0l13.02-7.44c10.32-6,10.32-15.64.08-21.64Z"/><path class="cls-3" d="M148.47,119.78l-52.59,30.27c-10.23,5.83-18.69,1.01-18.69-10.82,0-14.2,38.89-48.53,58.17-48.53h0l13.02,7.44c10.32,6,10.32,15.64.08,21.64Z"/><path class="cls-4" d="M118.96,130.43c4.4,0,8.62-.42,12.6-1.01l16.83-9.64c10.23-5.83,10.23-15.64,0-21.48l-16.83-9.64c-3.97-.59-8.2-1.01-12.6-1.01-23.08,0-41.68,9.64-41.68,21.48s18.6,21.31,41.68,21.31Z"/><path class="cls-5" d="M65.44,70.91c0-.17.08-.34.08-.51,3.21-15.56,16.49-23.67,33.4-13.95l56.56,32.47c10.65,4.4,23.25,3.04,32.89-4.82,13.44-11.25,15.64-31.28,4.4-44.73-9.05-10.82-20.29-20.04-32.89-26.72h-.17c-10.4-5.24-22.07-8.03-34.67-8.03-33.06,0-59.95,26.89-59.95,59.95"/></svg>